<svg width="844" height="844" viewBox="0 0 844 844" fill="none" xmlns="http://www.w3.org/2000/svg" xmlns:xlink="http://www.w3.org/1999/xlink">
<path d="M424.597 0.00776438C479.132 0.343406 533.093 11.2469 583.492 32.123C634.692 53.3305 681.213 84.4149 720.399 123.601C759.585 162.787 790.669 209.308 811.877 260.507C833.084 311.707 844 366.582 844 422L843.992 424.597C843.657 479.132 832.753 533.093 811.877 583.492C790.669 634.692 759.585 681.213 720.399 720.399C681.213 759.585 634.692 790.669 583.492 811.877C533.093 832.753 479.132 843.657 424.597 843.992L422 844C366.582 844 311.707 833.084 260.507 811.877C209.308 790.669 162.787 759.585 123.601 720.399C84.4149 681.213 53.3305 634.692 32.123 583.492C11.2469 533.093 0.343412 479.132 0.00776438 424.597L0 422C4.84478e-06 366.582 10.9155 311.707 32.123 260.507C53.3305 209.308 84.4149 162.787 123.601 123.601C162.787 84.4149 209.308 53.3305 260.507 32.123C311.707 10.9156 366.582 -2.42228e-06 422 0L424.597 0.00776438Z" fill="url(#pattern0_123_47)"/>
<path d="M424.597 0.00776438C479.132 0.343406 533.093 11.2469 583.492 32.123C634.692 53.3305 681.213 84.4149 720.399 123.601C759.585 162.787 790.669 209.308 811.877 260.507C833.084 311.707 844 366.582 844 422L843.992 424.597C843.657 479.132 832.753 533.093 811.877 583.492C790.669 634.692 759.585 681.213 720.399 720.399C681.213 759.585 634.692 790.669 583.492 811.877C533.093 832.753 479.132 843.657 424.597 843.992L422 844C366.582 844 311.707 833.084 260.507 811.877C209.308 790.669 162.787 759.585 123.601 720.399C84.4149 681.213 53.3305 634.692 32.123 583.492C11.2469 533.093 0.343412 479.132 0.00776438 424.597L0 422C4.84478e-06 366.582 10.9155 311.707 32.123 260.507C53.3305 209.308 84.4149 162.787 123.601 123.601C162.787 84.4149 209.308 53.3305 260.507 32.123C311.707 10.9156 366.582 -2.42228e-06 422 0L424.597 0.00776438Z" fill="url(#paint1_radial_123_47)"/>
<path d="M424.597 0.00776438C479.132 0.343406 533.093 11.2469 583.492 32.123C634.692 53.3305 681.213 84.4149 720.399 123.601C759.585 162.787 790.669 209.308 811.877 260.507C833.084 311.707 844 366.582 844 422L843.992 424.597C843.657 479.132 832.753 533.093 811.877 583.492C790.669 634.692 759.585 681.213 720.399 720.399C681.213 759.585 634.692 790.669 583.492 811.877C533.093 832.753 479.132 843.657 424.597 843.992L422 844C366.582 844 311.707 833.084 260.507 811.877C209.308 790.669 162.787 759.585 123.601 720.399C84.4149 681.213 53.3305 634.692 32.123 583.492C11.2469 533.093 0.343412 479.132 0.00776438 424.597L0 422C4.84478e-06 366.582 10.9155 311.707 32.123 260.507C53.3305 209.308 84.4149 162.787 123.601 123.601C162.787 84.4149 209.308 53.3305 260.507 32.123C311.707 10.9156 366.582 -2.42228e-06 422 0L424.597 0.00776438Z" fill="black" fill-opacity="0.2"/>
<defs>
<radialGradient id="paint1_radial_123_47" cx="0" cy="0" r="1" gradientUnits="userSpaceOnUse" gradientTransform="translate(422 422) rotate(143.973) scale(403.451 322.058)">
<stop stop-opacity="0"/>
<stop offset="1"/>
</radialGradient>
<pattern id="pattern0_123_47" patternUnits="userSpaceOnUse" viewBox="296 -4286 400 200" width="9.4786731270252247%" height="4.7393365635126123%" x="407" y="408" patternContentUnits="objectBoundingBox">
<g id="pattern0_123_47_inner">
<circle cx="371" cy="-4366" r="50" fill="url(#paint0_radial_123_47)"/>
</g>
<use xlink:href="#pattern0_123_47_inner" transform="translate(0 200)"/>
<use xlink:href="#pattern0_123_47_inner" transform="translate(200 100)"/>
<use xlink:href="#pattern0_123_47_inner" transform="translate(200 300)"/>
</pattern><radialGradient id="paint0_radial_123_47" cx="0" cy="0" r="1" gradientUnits="userSpaceOnUse" gradientTransform="translate(371 -4366) rotate(90) scale(50)">
<stop stop-color="#4D6A2A"/>
<stop offset="1"/>
</radialGradient>
</defs>
</svg>
